<svg width="24" height="24" viewBox="0 0 24 24" fill="none" xmlns="http://www.w3.org/2000/svg">
<path d="M12 0L20 8.4H4L12 0Z" fill="#14A211"/>
<path d="M20 8.40045C20 9.02637 16.4183 9.60039 12 9.60039C7.58172 9.60039 4 9.02631 4 8.40039C9.66667 8.40039 8.26498 8.40044 12 8.40043C15.6667 8.40043 15.6667 8.40043 20 8.40045Z" fill="#14A211"/>
<path d="M12 5.48633L22 13.8863H2L12 5.48633Z" fill="#14A211"/>
<path d="M22 13.8868C22 14.5127 17.5228 15.0867 12 15.0867C6.47715 15.0867 2 14.5126 2 13.8867C9.08333 13.8867 7.33122 13.8868 12 13.8868C16.5833 13.8868 16.5833 13.8868 22 13.8868Z" fill="#14A211"/>
<rect x="10.6665" y="19.2002" width="2.66667" height="4.8" fill="#5D4929"/>
<path d="M12 10.9707L24 19.3707H0L12 10.9707Z" fill="#14A211"/>
<path d="M24 19.3712C24 19.9971 18.6274 20.5711 12 20.5711C5.37258 20.5711 0 19.997 0 19.3711C8.5 19.3711 6.39747 19.3711 12 19.3711C17.5 19.3711 17.5 19.3711 24 19.3712Z" fill="#14A211"/>
</svg>
